HIERARCHY
ROOT Hips
{
  OFFSET -338.197 94.0981 -8.25627
  CHANNELS 6 Xposition Yposition Zposition Zrotation Xrotation Yrotation
  JOINT RightUpLeg
  {
    OFFSET -8.9458 -8.66707 0.101652
    CHANNELS 3 Zrotation Xrotation Yrotation
    JOINT RightLeg
    {
      OFFSET 0 -44.4227 1.3727
      CHANNELS 3 Zrotation Xrotation Yrotation
      JOINT RightFoot
      {
        OFFSET 0.253549 -42.0924 -1.46059
        CHANNELS 3 Zrotation Xrotation Yrotation
        JOINT RightToes
        {
          OFFSET 0.04 -4.41509 8.4991
          CHANNELS 3 Zrotation Xrotation Yrotation
          End Site
          {
            OFFSET -0.08 -0.137448 9.77979
          }
        }
      }
    }
  }
  JOINT Spine
  {
    OFFSET 0 11.8905 0
    CHANNELS 3 Zrotation Xrotation Yrotation
    JOINT Spine1
    {
      OFFSET 0 25.6574 0.127663
      CHANNELS 3 Zrotation Xrotation Yrotation
      JOINT HEad
      {
        OFFSET 0 8.73416 0.011341
        CHANNELS 3 Zrotation Xrotation Yrotation
        End Site
        {
          OFFSET -0.29 12.7742 2.51395
        }
      }
      JOINT LeftShoulder1
      {
        OFFSET 8.99 -0.362252 -0.22
        CHANNELS 3 Zrotation Xrotation Yrotation
        JOINT LeftArm
        {
          OFFSET 10.2827 -0.00338 0.322123
          CHANNELS 3 Zrotation Xrotation Yrotation
          JOINT LeftForeArm
          {
            OFFSET 32.7669 0.099144 -1.42434
            CHANNELS 3 Zrotation Xrotation Yrotation
            JOINT LeftHand
            {
              OFFSET 27.5643 0.085362 1.02216
              CHANNELS 3 Zrotation Xrotation Yrotation
              End Site
              {
                OFFSET 16.7443 -0.6 1.50291
              }
            }
          }
        }
      }
      JOINT RightShoulder
      {
        OFFSET -8.99 -0.362252 -0.22
        CHANNELS 3 Zrotation Xrotation Yrotation
        JOINT RightArm
        {
          OFFSET -10.2827 -0.00338 0.322123
          CHANNELS 3 Zrotation Xrotation Yrotation
          JOINT RightForeArm
          {
            OFFSET -32.8971 0.099144 -1.42434
            CHANNELS 3 Zrotation Xrotation Yrotation
            JOINT RightHand
            {
              OFFSET -27.4921 0.085362 1.02216
              CHANNELS 3 Zrotation Xrotation Yrotation
              End Site
              {
                OFFSET -16.6312 -0.6 1.50291
              }
            }
          }
        }
      }
    }
  }
  JOINT LeftUpLeg
  {
    OFFSET 8.9458 -8.66707 0.101652
    CHANNELS 3 Zrotation Xrotation Yrotation
    JOINT LeftLeg
    {
      OFFSET 0 -44.4227 1.3727
      CHANNELS 3 Zrotation Xrotation Yrotation
      JOINT LeftFoot
      {
        OFFSET -0.253549 -42.0924 -1.46059
        CHANNELS 3 Zrotation Xrotation Yrotation
        JOINT LeftToes
        {
          OFFSET -0.04 -4.41509 8.4991
          CHANNELS 3 Zrotation Xrotation Yrotation
          End Site
          {
            OFFSET 0.08 -0.047448 9.77979
          }
        }
      }
    }
  }
}
MOTION
Frames:	12
Frame Time:	0.0166667
-304.426 95.4278 12.74 -5.1884 3.84639 -155.231 -23.3295 -4.41648 -4.85136 -15.3888 39.0191 39.8775 13.3628 1.14453 -0.0943376 0.0462048 0.000533403 0.662642 4.75879 15.4094 7.27817 0.0112634 -0.0225198 -0.00532149 -38.0533 17.7865 35.1578 7.95139e-016 -1.59028e-015 -6.36111e-015 142.274 -69.8411 148.852 -87.0046 56.5657 -54.4041 4.58789 18.8852 1.00661 32.1232 2.16147 9.28221 57.2933 -24.5039 65.2575 50.0295 54.3171 78.2634 -7.18409 24.727 0.424074 24.8609 -28.6793 12.4444 -9.32151 31.7283 11.0089 12.111 -3.89851 0.867537 -1.18446e-009 1.5602e-007 -4.87132e-009 
-301.89 95.0597 13.232 -4.79208 3.1128 -154.538 -23.2345 -0.473619 -0.211944 -6.77359 35.4747 26.7105 10.5994 0.282728 -0.0444993 0.0462048 0.000533403 0.662642 4.60076 14.9799 7.80135 0.0112634 -0.0225198 -0.00532149 -38.5456 16.7605 34.95 2.38542e-015 -1.59028e-015 -6.36111e-015 142.001 -70.0389 149.958 -87.5366 56.6664 -54.1565 5.5985 18.1949 4.31771 31.3142 2.29606 8.22276 59.7928 -23.4067 67.1723 50.4128 54.4911 77.0704 -7.09503 24.3206 0.16095 25.2496 -29.6873 13.2292 -7.23044 31.1188 5.26864 12.9893 -3.85793 0.950603 -1.18447e-009 1.5602e-007 -4.87132e-009 
-299.421 94.7289 13.5764 -4.42877 2.5993 -153.931 -23.1903 2.88194 4.05818 1.31758 32.2478 14.2019 6.03585 -0.552807 -0.0764237 0.0462048 0.000533403 0.662642 4.60926 14.6974 8.1919 0.0112634 -0.0225198 -0.00532149 -38.8817 15.8536 34.8561 -1.05934e-030 -6.36111e-015 -9.54166e-015 141.553 -70.1677 151.132 -88.611 56.8305 -53.5502 5.19284 18.135 0.334948 30.6451 2.55059 7.15847 61.8956 -22.3434 68.8574 50.7548 54.6821 75.9826 -7.14045 24.0265 -0.0732514 25.0864 -30.5049 13.6866 -3.97787 30.5241 -2.2811 12.9042 -3.84795 0.949957 -1.18446e-009 1.5602e-007 -4.87131e-009 
-297.079 94.3839 13.827 -4.11037 2.30243 -153.383 -23.5023 5.65242 8.07392 8.72158 28.7024 3.64904 4.24011 -0.983977 -0.153803 0.0462048 0.000533403 0.662642 4.76421 14.5452 8.42075 0.0112634 -0.0225198 -0.00532149 -39.1176 15.1159 34.9276 1.59028e-015 3.18055e-015 6.36111e-015 141.242 -70.294 152.561 -89.9827 56.9624 -52.5791 5.86077 17.7997 2.03551 29.9527 2.86218 6.0938 63.8211 -21.2897 70.2879 51.044 54.8471 74.9974 -7.24292 23.6761 -0.240362 24.558 -31.1056 13.847 -1.21919 29.4027 -8.62796 13.0423 -3.83706 0.923259 -1.18446e-009 1.5602e-007 -4.87132e-009 
-294.96 94.1179 14.063 -3.83751 2.20723 -152.873 -23.9286 7.97837 11.7703 14.2071 23.3632 -4.05995 1.9317 -1.59327 -0.098461 0.0462048 0.000533403 0.662642 5.07022 14.4771 8.48243 0.0112634 -0.0225198 -0.00532149 -39.2929 14.6166 35.1861 1.59028e-015 -1.59028e-015 -3.18055e-015 141.229 -70.4312 154.26 -91.5919 57.0395 -51.3635 5.48676 17.966 -0.653393 29.4323 3.10915 5.17668 65.3691 -20.3089 71.2605 51.2462 54.9747 74.1385 -7.43082 23.3935 -0.213089 23.7052 -31.3241 13.7456 1.23278 27.8684 -13.878 13.2095 -3.74238 0.899489 -1.18446e-009 1.5602e-007 -4.87132e-009 
-292.959 93.945 14.3053 -3.60182 2.27506 -152.408 -23.6787 9.2806 14.4896 17.487 19.8918 -8.54067 1.61232 -1.8641 -0.0878101 0.0462048 0.000533403 0.662642 5.47506 14.4642 8.4105 0.0112634 -0.0225198 -0.00532149 -39.3329 14.3173 35.5802 0 3.18055e-015 -0 141.708 -70.6887 156.343 -93.0799 57.0265 -50.0745 5.81333 17.9085 0.315993 28.8764 3.43132 4.38508 66.8078 -19.4165 71.961 51.3366 55.0722 73.3961 -7.3712 23.0064 -0.422337 22.8248 -31.2867 13.5344 3.33988 26.4023 -17.9997 13.3848 -3.68597 0.880572 -1.18447e-009 1.5602e-007 -4.87132e-009 
-291.184 93.8382 14.519 -3.38747 2.46858 -152.014 -22.6236 9.74985 16.1407 18.9184 18.3599 -10.4476 0.295756 -2.10412 -0.0853959 0.0462048 0.000533403 0.662642 5.93556 14.4794 8.26178 0.0112634 -0.0225198 -0.00532149 -39.2497 14.2328 36.0768 -1.59028e-015 1.59028e-015 -6.36111e-015 142.668 -71.0621 158.768 -94.3413 56.9629 -48.8582 5.5148 18.2022 -1.28119 28.3307 3.77409 3.80343 68.039 -18.6927 72.3587 51.3165 55.1361 72.7345 -7.22181 22.8039 -0.563259 22.0895 -31.0906 13.3788 4.63563 26.2258 -19.4548 14.302 -3.52946 0.902295 -1.18447e-009 1.5602e-007 -4.87131e-009 
-289.642 93.8861 14.7046 -3.18802 2.75223 -151.711 -21.0438 9.73427 16.8424 18.4022 18.2356 -10.2275 2.15239 -2.12529 -0.0353677 0.0462048 0.000533403 0.662642 6.4091 14.508 8.07423 0.0112634 -0.0225198 -0.00532149 -39.0738 14.3671 36.658 -1.59028e-015 -3.18055e-015 3.18055e-015 144.002 -71.5085 161.39 -95.1668 56.8551 -47.898 5.75812 18.5679 -0.719078 27.7301 4.10498 3.33907 69.1084 -18.034 72.5978 51.1795 55.1491 72.1467 -6.86091 22.653 -0.708001 21.5845 -30.8298 13.3695 5.28281 26.7074 -18.6696 15.6678 -3.33476 0.962952 -1.18446e-009 1.5602e-007 -4.87131e-009 
-288.327 94.0427 14.845 -3.0038 3.09817 -151.498 -18.9694 9.15663 16.5864 16.6935 19.5714 -8.66581 3.63786 -2.08345 0.00769653 0.0462048 0.000533403 0.662642 6.86448 14.5353 7.87134 0.0112634 -0.0225198 -0.00532149 -38.8512 14.7284 37.2997 1.59028e-015 3.18055e-015 -6.36111e-015 145.493 -71.9261 163.997 -95.6752 56.73 -47.1765 5.59807 18.9634 -1.63097 27.0067 4.41757 3.02817 70.0501 -17.4646 72.7076 50.9397 55.1202 71.6466 -6.51771 22.4623 -0.754646 21.3565 -30.6788 13.5493 5.35735 27.7641 -16.1651 17.3634 -3.16556 1.05258 -1.18448e-009 1.5602e-007 -4.87132e-009 
-287.23 94.2837 14.9231 -2.82579 3.48542 -151.372 -16.625 8.09849 15.4286 14.4927 21.9682 -6.85595 4.15281 -1.86801 -0.0122531 0.0462048 0.000533403 0.662642 7.29234 14.5405 7.6669 0.0112634 -0.0225198 -0.00532149 -38.6098 15.2716 37.993 6.36111e-015 1.59028e-015 3.18055e-015 146.923 -72.2616 166.367 -95.899 56.6049 -46.7219 5.76986 19.442 -1.36461 26.1845 4.65009 2.74858 70.8568 -16.87 72.7346 50.6781 55.0612 71.205 -6.14074 22.329 -0.711675 21.4209 -30.6359 13.9304 4.78586 29.21 -12.3677 19.4133 -2.98747 1.16562 -1.18446e-009 1.5602e-007 -4.87132e-009 
-286.302 94.6399 14.945 -2.6309 3.86271 -151.306 -14.7779 7.26139 14.3904 12.4005 24.0897 -5.23969 5.69107 -1.68207 0.0246654 0.0462048 0.000533403 0.662642 7.68733 14.4728 7.46491 0.0112634 -0.0225198 -0.00532149 -38.3656 15.9686 38.7139 1.59028e-015 1.59028e-015 3.18055e-015 156.719 -70.5917 177.542 -96.0228 56.4814 -46.4006 5.66399 19.7535 -1.84596 25.2563 4.90511 2.64267 71.554 -16.4618 72.7713 50.4459 54.9651 70.7908 -5.80624 22.1848 -0.723854 21.6552 -30.583 14.4192 4.54619 29.6174 -9.39765 20.7001 -2.89404 1.20811 -1.18447e-009 1.5602e-007 -4.87132e-009 
-285.493 95.0112 14.9731 -2.41286 4.21029 -151.28 -13.9072 6.8744 13.6231 10.1531 23.7138 -3.6935 15.2061 -1.49186 0.245877 0.0462048 0.000533403 0.662642 8.03429 14.3269 7.26752 0.0112634 -0.0225198 -0.00532149 -38.1172 16.7645 39.4363 2.38542e-015 3.18055e-015 6.36111e-015 155.405 -70.7623 176.659 -96.0534 56.3588 -46.1744 5.75667 20.2203 -1.62102 24.2559 5.19208 2.64749 72.144 -16.1927 72.8861 50.2626 54.833 70.3912 -5.49308 22.0594 -0.645706 21.9331 -30.4763 14.9333 4.51765 29.4683 -7.21074 21.4595 -2.92857 1.25045 -1.18447e-009 1.5602e-007 -4.87132e-009 
